<svg xmlns="http://www.w3.org/2000/svg" width="261.373" height="228.231" viewBox="0 0 261.373 228.231">
  <g id="Group_44" data-name="Group 44" transform="matrix(0.951, -0.309, 0.309, 0.951, -28.916, 99.859)">
    <g id="Group_39" data-name="Group 39">
      <rect id="Rectangle_98" data-name="Rectangle 98" width="175.979" height="101.496" rx="5" transform="matrix(0.965, 0.261, -0.261, 0.965, 60.118, 46.097)" fill="#fff"/>
    </g>
    <g id="Group_40" data-name="Group 40">
      <path id="Path_303" data-name="Path 303" d="M221.187,55.682a40.957,40.957,0,0,0-22.414,6.638,39.669,39.669,0,0,0-14.867,17.708,38.7,38.7,0,0,0-2.307,22.807,39.221,39.221,0,0,0,11.031,20.217,40.6,40.6,0,0,0,20.649,10.81,41.152,41.152,0,0,0,23.3-2.241,40.162,40.162,0,0,0,18.1-14.537,38.809,38.809,0,0,0-5.012-49.823A40.806,40.806,0,0,0,221.187,55.682ZM215.213,63.7a32.942,32.942,0,0,0,14.832,4.877l-.291,4.249a43.36,43.36,0,0,1-5.828-.913l-.641-.171a38.289,38.289,0,0,1-10.636-4.591L212.474,67Zm5.974,51.163a20.477,20.477,0,0,1-11.214-3.314,19.829,19.829,0,0,1-7.44-8.856,19.343,19.343,0,0,1-1.154-11.408,19.606,19.606,0,0,1,5.52-10.112,20.3,20.3,0,0,1,10.332-5.4,20.572,20.572,0,0,1,11.657,1.13,20.082,20.082,0,0,1,9.048,7.281,19.417,19.417,0,0,1-2.52,24.9A20.391,20.391,0,0,1,221.187,114.858Z" fill="#f6f7f8" opacity="0.5"/>
    </g>
    <rect id="Rectangle_99" data-name="Rectangle 99" width="29.189" height="5.639" rx="2.819" transform="matrix(0.965, 0.261, -0.261, 0.965, 53.189, 114.901)" fill="#f6f7f8"/>
    <rect id="Rectangle_100" data-name="Rectangle 100" width="51.327" height="5.639" rx="2.819" transform="matrix(0.965, 0.261, -0.261, 0.965, 54.364, 132.158)" fill="#f6f7f8"/>
    <rect id="Rectangle_101" data-name="Rectangle 101" width="29.189" height="5.639" rx="2.819" transform="matrix(0.965, 0.261, -0.261, 0.965, 68.062, 59.928)" fill="#f6f7f8"/>
    <rect id="Rectangle_102" data-name="Rectangle 102" width="29.189" height="5.639" rx="2.819" transform="matrix(0.965, 0.261, -0.261, 0.965, 89.67, 124.764)" fill="#f6f7f8"/>
    <rect id="Rectangle_103" data-name="Rectangle 103" width="29.189" height="5.639" rx="2.819" transform="matrix(0.965, 0.261, -0.261, 0.965, 126.15, 134.627)" fill="#f6f7f8"/>
    <rect id="Rectangle_104" data-name="Rectangle 104" width="29.189" height="5.639" rx="2.819" transform="matrix(0.965, 0.261, -0.261, 0.965, 162.631, 144.489)" fill="#f6f7f8"/>
    <rect id="Rectangle_105" data-name="Rectangle 105" width="29.189" height="5.639" rx="2.819" transform="matrix(0.965, 0.261, -0.261, 0.965, 152.916, 158.803)" fill="#f6f7f8"/>
    <rect id="Rectangle_106" data-name="Rectangle 106" width="29.33" height="21.991" rx="3" transform="matrix(0.965, 0.261, -0.261, 0.965, 61.289, 84.965)" fill="#ffd954"/>
    <g id="Group_41" data-name="Group 41">
      <rect id="Rectangle_107" data-name="Rectangle 107" width="175.98" height="101.495" rx="5" transform="matrix(0.978, -0.21, 0.21, 0.978, 15.165, 46.902)" fill="#fcfcfd"/>
    </g>
    <g id="Group_42" data-name="Group 42">
      <path id="Path_304" data-name="Path 304" d="M158.3-30.121a40.939,40.939,0,0,0-16.889,16.157A39.653,39.653,0,0,0,136.3,8.582a38.694,38.694,0,0,0,8.391,21.333,39.232,39.232,0,0,0,19.064,12.928,40.615,40.615,0,0,0,23.308.163,41.133,41.133,0,0,0,19.7-12.656A40.138,40.138,0,0,0,216.2,9.142a38.87,38.87,0,0,0-4-22.61,39.1,39.1,0,0,0-23.271-19.394A40.813,40.813,0,0,0,158.3-30.121Zm-1.642,9.858a32.941,32.941,0,0,0,15.42-2.451l1.687,3.911a43.356,43.356,0,0,1-5.6,1.855l-.648.141a38.31,38.31,0,0,1-11.559.784l-.221-.047Zm28.736,42.756a20.478,20.478,0,0,1-11.487,2.184,19.844,19.844,0,0,1-10.669-4.469,19.349,19.349,0,0,1-6.25-9.615,19.608,19.608,0,0,1,.278-11.516,20.291,20.291,0,0,1,6.712-9.531,20.57,20.57,0,0,1,10.882-4.329,20.084,20.084,0,0,1,11.379,2.333,19.419,19.419,0,0,1,9.16,23.293A20.377,20.377,0,0,1,185.394,22.493Z" fill="#e8ebee" opacity="0.5"/>
    </g>
    <rect id="Rectangle_108" data-name="Rectangle 108" width="175.98" height="19.735" transform="matrix(0.978, -0.21, 0.21, 0.978, 22.804, 83.324)" fill="#e8ebee"/>
    <rect id="Rectangle_109" data-name="Rectangle 109" width="175.983" height="101.494" rx="5" transform="translate(33.611 44.405)" fill="#066035"/>
    <g id="Group_43" data-name="Group 43">
      <path id="Path_305" data-name="Path 305" d="M194.676,11.138a40.957,40.957,0,0,0-22.413,6.638A39.67,39.67,0,0,0,157.4,35.483a38.687,38.687,0,0,0-2.307,22.807A39.218,39.218,0,0,0,166.12,78.507a40.607,40.607,0,0,0,20.649,10.81,41.145,41.145,0,0,0,23.305-2.241,40.157,40.157,0,0,0,18.1-14.537,38.809,38.809,0,0,0-5.012-49.822A40.806,40.806,0,0,0,194.676,11.138ZM188.7,19.152a32.934,32.934,0,0,0,14.832,4.877l-.292,4.249a43.394,43.394,0,0,1-5.828-.913l-.641-.171A38.309,38.309,0,0,1,186.138,22.6l-.174-.143Zm5.973,51.163A20.482,20.482,0,0,1,183.462,67a19.838,19.838,0,0,1-7.439-8.855,19.336,19.336,0,0,1-1.154-11.409,19.606,19.606,0,0,1,5.52-10.112,20.3,20.3,0,0,1,10.331-5.4,20.572,20.572,0,0,1,11.657,1.13,20.081,20.081,0,0,1,9.049,7.281,19.417,19.417,0,0,1-2.52,24.9A20.392,20.392,0,0,1,194.676,70.314Z" fill="#0ba85c" opacity="0.2"/>
    </g>
    <rect id="Rectangle_110" data-name="Rectangle 110" width="29.19" height="5.639" rx="2.819" transform="translate(44.892 112.632)" fill="#076f3c"/>
    <rect id="Rectangle_111" data-name="Rectangle 111" width="51.328" height="5.639" rx="2.819" transform="translate(50.533 128.983)" fill="#076f3c"/>
    <rect id="Rectangle_112" data-name="Rectangle 112" width="29.19" height="5.639" rx="2.819" transform="translate(44.892 55.683)" fill="#076f3c"/>
    <rect id="Rectangle_113" data-name="Rectangle 113" width="29.19" height="5.639" rx="2.819" transform="translate(82.684 112.632)" fill="#076f3c"/>
    <rect id="Rectangle_114" data-name="Rectangle 114" width="29.19" height="5.639" rx="2.819" transform="translate(120.475 112.632)" fill="#076f3c"/>
    <rect id="Rectangle_115" data-name="Rectangle 115" width="29.19" height="5.639" rx="2.819" transform="translate(158.266 112.632)" fill="#076f3c"/>
    <rect id="Rectangle_116" data-name="Rectangle 116" width="29.19" height="5.639" rx="2.819" transform="translate(152.625 128.983)" fill="#076f3c"/>
    <rect id="Rectangle_117" data-name="Rectangle 117" width="29.33" height="21.99" rx="3" transform="translate(44.892 81.619)" fill="#0ba85c" opacity="0.7"/>
  </g>
</svg>
