<svg id="Layer_1" data-name="Layer 1" xmlns="http://www.w3.org/2000/svg" viewBox="0 0 400 97.91"><defs><style>.cls-1{fill:#1ca85c;}</style></defs><polygon class="cls-1" points="270.93 24.74 258.03 55.46 244.06 24.74 228.17 24.74 250.46 70.6 238.09 97.91 253.12 97.91 286.08 24.74 270.93 24.74"/><path class="cls-1" d="M53.37,48.36c-5,0-10.77,1.71-14.19,5.76V25H25v77.22H39.18V71.4C39.5,65.64,43,61.16,49,61.16c6.82,0,9.7,4.58,9.7,10.45v30.61H72.89V69.16C72.89,57.64,66.7,48.36,53.37,48.36Z" transform="translate(-25 -25)"/><path class="cls-1" d="M364.76,25h-14V55c-1.49-2.77-5.76-6.5-14.83-6.5-14.82,0-25.17,12.05-25.17,27.4,0,15.9,10.67,27.63,25.6,27.63,7,0,12.37-3.2,14.72-7.36a36.75,36.75,0,0,0,.53,6.08h13.55c-.22-2.14-.43-6-.43-9.49ZM338.1,90.81c-7.47,0-13-5.55-13-14.94s5.75-14.71,13-14.71S351,66.38,351,75.77,345.35,90.81,338.1,90.81Z" transform="translate(-25 -25)"/><path class="cls-1" d="M226.15,48.15c-13.44,0-25.81,10.87-25.81,27.62,0,17.7,12.69,28.05,27.09,28.05,12.9,0,21.22-7.57,23.89-16.64l-11.84-3.52c-1.71,4.69-5.33,8-11.95,8-7,0-12.9-5-13.22-12h37.54c0-.21.21-2.34.21-4.37C252.06,58.49,242.36,48.15,226.15,48.15ZM214.63,70a11.35,11.35,0,0,1,11.73-10.35c8.1,0,11.52,5.12,11.73,10.35Z" transform="translate(-25 -25)"/><path class="cls-1" d="M168.46,48.36A24,24,0,0,0,144.52,72.3v29.92H158.4V72.3a10.07,10.07,0,0,1,20.13,0v29.92h13.88V72.3A24,24,0,0,0,168.46,48.36Z" transform="translate(-25 -25)"/><path class="cls-1" d="M411.12,48.36V78.27a10.07,10.07,0,1,1-20.13,0V48.36H377.11V78.27a23.95,23.95,0,1,0,47.89,0V48.36Z" transform="translate(-25 -25)"/><path class="cls-1" d="M108.33,48.36A27.68,27.68,0,1,0,136,76,27.71,27.71,0,0,0,108.33,48.36ZM104.24,54a22.12,22.12,0,0,0,10.18,3.43l-.21,3a27.78,27.78,0,0,1-3.95-.64l-.45-.11h0a25.54,25.54,0,0,1-7.29-3.23l-.12-.08Zm4.09,35.88h0A13.83,13.83,0,1,1,122.16,76,13.84,13.84,0,0,1,108.33,89.86Z" transform="translate(-25 -25)"/></svg>